<svg xmlns="http://www.w3.org/2000/svg" viewBox="0 0 32 32" id="Like"><path d="M30.2 15.4c.5-1 .4-2.1-.1-3.1-.9-1.7-2.8-2.3-5.3-1.7-.2.1-.5.1-.8.2-.6.2-2.2.6-2.5.6-.2-.4-.2-2 0-3.4.7-5 .3-6.4-2-6.7-2.3-.3-3.8 1.7-5.8 7.6-.7 2.2-3.3 4.6-3.8 5-.1 0-.2.2-.3.2H2c-.5 0-1 0-1 .5v15c0 .5.5 1.4 1 1.4h21.6c2.3 0 4-.8 5-2.1 1-1.2 1.1-2.7 1.1-3.4 1.3-1.6.9-3.5.3-4.7 1.5-1.9 1-4.2.2-5.4zM5.7 27.2c-.8 0-1.4-.6-1.4-1.4s.6-1.4 1.4-1.4c.8 0 1.4.6 1.4 1.4s-.7 1.4-1.4 1.4zm22.4-6c.1.1 1.3 1.9 0 3.2-.2.2-.3.5-.3.8 0 0 .2 1.5-.6 2.4-.7.8-1.9 1.4-3.6 1.4H10.4V15.4h.1c.5-.2 3.9-3 4.9-5.9 2.2-6.5 3.4-6.3 3.8-6.3.2 0 .4.1.5.1.1.1.4.8-.1 4.5-.2 1.4-.3 3.8.5 4.7.9 1.1 2.8.5 4.5.1.3-.1.5-.2.7-.2 1.2-.3 2.7-.4 3.2.7.3.6.3 1.2-.1 1.8-.2.3-.2.8 0 1.1.1.1 1.6 2.2-.2 4-.3.3-.4.8-.1 1.2z" fill="#808080" class="color000000 svgShape"></path></svg>